{
	"asset":{
		"generator":"Khronos glTF Blender I/O v4.2.60",
		"version":"2.0"
	},
	"scene":0,
	"scenes":[
		{
			"name":"Scene",
			"nodes":[
				0,
				1,
				2
			]
		}
	],
	"nodes":[
		{
			"mesh":0,
			"name":"Torus"
		},
		{
			"mesh":1,
			"name":"Torus.001",
			"translation":[
				0.09255601465702057,
				0.21302145719528198,
				-0.0183478482067585
			]
		},
		{
			"mesh":2,
			"name":"Plane",
			"rotation":[
				-0.060131534934043884,
				-0.013589000329375267,
				-0.00037815707037225366,
				0.9980979561805725
			],
			"translation":[
				0.04020257294178009,
				0.7125791311264038,
				-0.041961342096328735
			]
		}
	],
	"materials":[
		{
			"doubleSided":true,
			"name":"Material.003",
			"pbrMetallicRoughness":{
				"baseColorFactor":[
					0.6731095910072327,
					0.800315260887146,
					0.15501493215560913,
					1
				],
				"metallicFactor":0,
				"roughnessFactor":0.5
			}
		},
		{
			"doubleSided":true,
			"name":"Material.002",
			"pbrMetallicRoughness":{
				"baseColorFactor":[
					0.8002121448516846,
					0.08649836480617523,
					0.6701767444610596,
					1
				],
				"metallicFactor":0,
				"roughnessFactor":0.5
			}
		},
		{
			"doubleSided":true,
			"name":"Material.001",
			"pbrMetallicRoughness":{
				"baseColorFactor":[
					0.0014976602979004383,
					0.47461479902267456,
					0.8011963367462158,
					1
				],
				"metallicFactor":0.29411765933036804,
				"roughnessFactor":0.5
			}
		}
	],
	"meshes":[
		{
			"name":"Torus",
			"primitives":[
				{
					"attributes":{
						"POSITION":0,
						"NORMAL":1,
						"TEXCOORD_0":2
					},
					"indices":3,
					"material":0
				}
			]
		},
		{
			"name":"Torus.001",
			"primitives":[
				{
					"attributes":{
						"POSITION":4,
						"NORMAL":5,
						"TEXCOORD_0":6
					},
					"indices":3,
					"material":1
				}
			]
		},
		{
			"name":"Plane",
			"primitives":[
				{
					"attributes":{
						"POSITION":7,
						"NORMAL":8,
						"TEXCOORD_0":9
					},
					"indices":10,
					"material":2
				}
			]
		}
	],
	"accessors":[
		{
			"bufferView":0,
			"componentType":5126,
			"count":736,
			"max":[
				1.25,
				0.4695187509059906,
				1.2470860481262207
			],
			"min":[
				-1.238357424736023,
				-0.28581148386001587,
				-1.2470860481262207
			],
			"type":"VEC3"
		},
		{
			"bufferView":1,
			"componentType":5126,
			"count":736,
			"type":"VEC3"
		},
		{
			"bufferView":2,
			"componentType":5126,
			"count":736,
			"type":"VEC2"
		},
		{
			"bufferView":3,
			"componentType":5123,
			"count":1104,
			"type":"SCALAR"
		},
		{
			"bufferView":4,
			"componentType":5126,
			"count":736,
			"max":[
				1.25,
				0.4695187509059906,
				1.2470860481262207
			],
			"min":[
				-1.238357424736023,
				-0.28581148386001587,
				-1.2470860481262207
			],
			"type":"VEC3"
		},
		{
			"bufferView":5,
			"componentType":5126,
			"count":736,
			"type":"VEC3"
		},
		{
			"bufferView":6,
			"componentType":5126,
			"count":736,
			"type":"VEC2"
		},
		{
			"bufferView":7,
			"componentType":5126,
			"count":4,
			"max":[
				1,
				0,
				1
			],
			"min":[
				-1,
				0,
				-1
			],
			"type":"VEC3"
		},
		{
			"bufferView":8,
			"componentType":5126,
			"count":4,
			"type":"VEC3"
		},
		{
			"bufferView":9,
			"componentType":5126,
			"count":4,
			"type":"VEC2"
		},
		{
			"bufferView":10,
			"componentType":5123,
			"count":6,
			"type":"SCALAR"
		}
	],
	"bufferViews":[
		{
			"buffer":0,
			"byteLength":8832,
			"byteOffset":0,
			"target":34962
		},
		{
			"buffer":0,
			"byteLength":8832,
			"byteOffset":8832,
			"target":34962
		},
		{
			"buffer":0,
			"byteLength":5888,
			"byteOffset":17664,
			"target":34962
		},
		{
			"buffer":0,
			"byteLength":2208,
			"byteOffset":23552,
			"target":34963
		},
		{
			"buffer":0,
			"byteLength":8832,
			"byteOffset":25760,
			"target":34962
		},
		{
			"buffer":0,
			"byteLength":8832,
			"byteOffset":34592,
			"target":34962
		},
		{
			"buffer":0,
			"byteLength":5888,
			"byteOffset":43424,
			"target":34962
		},
		{
			"buffer":0,
			"byteLength":48,
			"byteOffset":49312,
			"target":34962
		},
		{
			"buffer":0,
			"byteLength":48,
			"byteOffset":49360,
			"target":34962
		},
		{
			"buffer":0,
			"byteLength":32,
			"byteOffset":49408,
			"target":34962
		},
		{
			"buffer":0,
			"byteLength":12,
			"byteOffset":49440,
			"target":34963
		}
	],
	"buffers":[
		{
			"byteLength":49452,
			"uri":"untitled.bin"
		}
	]
}
